<svg width="150" height="108" xmlns="http://www.w3.org/2000/svg"><g fill="#2B2B2B" fill-rule="nonzero"><rect x="75" y="46" width="3" height="14" rx="1.5"/><rect transform="rotate(90 76.5 53)" x="75" y="46" width="3" height="14" rx="1.5"/><rect x="75" width="3" height="14" rx="1.5"/><rect transform="rotate(90 142.5 53)" x="141" y="46" width="3" height="14" rx="1.5"/><rect transform="rotate(90 7 53.5)" x="5.5" y="46.5" width="3" height="14" rx="1.5"/><rect x="75" y="94" width="3" height="14" rx="1.5"/><path d="M76.016 86.195c-18.568 0-33.675-14.96-33.675-33.349 0-18.388 15.107-33.348 33.675-33.348 17.734 0 32.497 13.716 33.609 31.224a1.614 1.614 0 0 1-1.522 1.708 1.613 1.613 0 0 1-1.723-1.506c-1.001-15.816-14.342-28.206-30.364-28.206-16.776 0-30.423 13.516-30.423 30.128 0 16.614 13.647 30.13 30.423 30.13.836 0 1.682-.035 2.515-.102a1.62 1.62 0 0 1 1.753 1.474 1.616 1.616 0 0 1-1.489 1.735c-.92.074-1.855.112-2.779.112"/><path d="M18.795 55.294a1.63 1.63 0 0 1-.89-.264 1.6 1.6 0 0 1-.468-2.228c.893-1.35 22.255-33.07 54.473-34.605 20.225-.967 39.997 10.292 58.777 33.455a1.594 1.594 0 0 1-.247 2.264 1.632 1.632 0 0 1-2.282-.248C110.06 31.353 91.168 20.5 72.066 21.413c-30.58 1.458-51.7 32.837-51.91 33.154a1.63 1.63 0 0 1-1.36.727"/><path d="M125.934 58.699c-.37 0-.742-.122-1.04-.373a1.59 1.59 0 0 1-.209-2.267l.982-1.172c.878-1.047 1.71-2.046 2.517-2.98a1.64 1.64 0 0 1 2.295-.176c.683.579.761 1.595.176 2.27-.794.922-1.62 1.908-2.484 2.942l-.989 1.176c-.325.382-.787.58-1.248.58M69.861 85.733c-.046 0-.091-.002-.137-.006-30.463-2.53-51.343-29.02-52.217-30.147a1.599 1.599 0 0 1 .299-2.257 1.636 1.636 0 0 1 2.279.295c.206.265 20.903 26.491 49.91 28.9a1.614 1.614 0 0 1 1.484 1.74 1.62 1.62 0 0 1-1.618 1.475M76.27 37.998c-8.354 0-15.15 6.73-15.15 15.002 0 8.273 6.796 15.003 15.15 15.003 8.353 0 15.15-6.73 15.15-15.003s-6.797-15.002-15.15-15.002zm0 33.224c-10.147 0-18.402-8.174-18.402-18.222 0-10.047 8.255-18.222 18.401-18.222 10.147 0 18.402 8.175 18.402 18.222 0 10.048-8.255 18.222-18.402 18.222z"/><path d="M111.996 58.25c-11.439 0-20.745 9.304-20.745 20.74 0 11.436 9.306 20.74 20.745 20.74 11.432 0 20.737-9.304 20.737-20.74 0-11.436-9.305-20.74-20.737-20.74zm0 44.73C98.763 102.98 88 92.218 88 78.99 88 65.762 98.763 55 111.996 55c13.226 0 23.988 10.762 23.988 23.99 0 13.228-10.762 23.99-23.988 23.99z"/><rect x="12" y="10" width="3" height="25" rx="1.5"/><rect transform="rotate(90 24.5 11.5)" x="23" y="-1" width="3" height="25" rx="1.5"/><rect transform="matrix(1 0 0 -1 0 177)" x="12" y="76" width="3" height="25" rx="1.5"/><rect transform="matrix(0 -1 -1 0 124 124)" x="23" y="87" width="3" height="25" rx="1.5"/><rect transform="matrix(-1 0 0 1 273 0)" x="135" y="10" width="3" height="25" rx="1.5"/><rect transform="matrix(0 1 1 0 114 -114)" x="124" y="-1" width="3" height="25" rx="1.5"/><path d="M112.5 68.964c-5.534 0-10.036 4.502-10.036 10.036s4.502 10.036 10.036 10.036S122.536 84.534 122.536 79s-4.502-10.036-10.036-10.036zm0 22.036c-6.617 0-12-5.383-12-12s5.383-12 12-12 12 5.383 12 12-5.383 12-12 12zM110.544 62.401a1.402 1.402 0 0 1 2.802-.005 1.402 1.402 0 0 1-1.396 1.406c-.775 0-1.401-.626-1.406-1.401zm6.103 2.125a1.406 1.406 0 0 1-.906-1.765 1.406 1.406 0 0 1 1.766-.906 1.41 1.41 0 0 1 .906 1.765 1.405 1.405 0 0 1-1.766.906zm-11.155-.869a1.402 1.402 0 0 1 .896-1.77 1.403 1.403 0 1 1 .435 2.737c-.589 0-1.14-.378-1.331-.967zm15.395 3.012a1.402 1.402 0 0 1 1.644-2.27 1.402 1.402 0 0 1-1.644 2.27zm-19.813-.247a1.397 1.397 0 0 1 .304-1.957v-.005a1.405 1.405 0 0 1 1.956.304 1.403 1.403 0 0 1-.303 1.961c-.248.182-.537.271-.827.266a1.4 1.4 0 0 1-1.13-.57zm23.19 3.6a1.4 1.4 0 1 1 2.26-1.658 1.4 1.4 0 0 1-.304 1.962 1.398 1.398 0 0 1-1.957-.304zm-26.542.383a1.402 1.402 0 0 1 1.643-2.27c.626.458.766 1.331.313 1.962-.275.374-.7.579-1.134.579a1.418 1.418 0 0 1-.822-.27zm28.717 3.839a1.396 1.396 0 0 1 .895-1.765 1.398 1.398 0 0 1 1.765.891 1.4 1.4 0 1 1-2.66.874zm-30.674.99a1.393 1.393 0 0 1-.901-1.76 1.395 1.395 0 0 1 1.76-.907 1.406 1.406 0 0 1 .906 1.765 1.404 1.404 0 0 1-1.335.972 1.4 1.4 0 0 1-.43-.07zm31.433 3.764v-.061a1.399 1.399 0 0 1 1.396-1.406c.766-.004 1.401.621 1.406 1.397v.07a1.402 1.402 0 0 1-2.802 0zM94 79.035a1.399 1.399 0 0 1 1.396-1.406c.775 0 1.401.626 1.406 1.401a1.402 1.402 0 0 1-2.802.005zm33.357 6.426a1.399 1.399 0 0 1-.899-1.765h-.005a1.404 1.404 0 0 1 2.669.864 1.4 1.4 0 0 1-1.335.966c-.14 0-.285-.019-.43-.065zm-32.474-.869a1.403 1.403 0 0 1 2.666-.868 1.402 1.402 0 0 1-2.666.868zm29.721 5.291a1.403 1.403 0 0 1-.308-1.957 1.402 1.402 0 0 1 1.957-.308c.628.453.768 1.331.308 1.957a1.39 1.39 0 0 1-1.957.308zm-27.153-.28a1.401 1.401 0 1 1 2.263-1.653 1.401 1.401 0 0 1-2.263 1.653zm23.18 3.648a1.402 1.402 0 0 1 2.264-1.653 1.402 1.402 0 0 1-2.264 1.653zm-19.197.326a1.403 1.403 0 0 1 1.648-2.27c.626.458.766 1.331.309 1.957-.271.379-.7.58-1.135.58-.285 0-.57-.09-.822-.267zm14.373 1.644a1.401 1.401 0 1 1 1.33.967c-.588 0-1.139-.379-1.33-.967zm-9.353.906a1.398 1.398 0 1 1 .864-2.662 1.403 1.403 0 0 1 .9 1.765 1.405 1.405 0 0 1-1.764.897zm4.16-.528a1.396 1.396 0 0 1 1.397-1.4c.775 0 1.4.625 1.405 1.395a1.4 1.4 0 1 1-2.802.005z"/></g></svg>