<svg width="82" height="118" xmlns="http://www.w3.org/2000/svg"><g fill="#2B2B2B" fill-rule="nonzero"><path d="M77.597 118H4.953C2.267 118 0 115.837 0 113.278V12.722C0 10.162 2.267 8 4.953 8h12.658c.76 0 1.376.622 1.376 1.389s-.617 1.389-1.376 1.389H4.953c-1.134 0-2.201.945-2.201 1.944v100.556c0 1 1.067 1.944 2.201 1.944h72.644c1.14 0 1.651-.976 1.651-1.944V12.722c0-.968-.511-1.944-1.65-1.944H66.04c-.76 0-1.376-.622-1.376-1.39 0-.766.617-1.388 1.376-1.388h11.557C80.107 8 82 10.03 82 12.722v100.556c0 2.692-1.893 4.722-4.403 4.722"/><path d="M59.594 11h-6.188C52.63 11 52 10.329 52 9.5S52.63 8 53.406 8h6.188C60.37 8 61 8.671 61 9.5s-.63 1.5-1.406 1.5M30.594 11h-6.188C23.63 11 23 10.329 23 9.5S23.63 8 24.406 8h6.188C31.37 8 32 8.671 32 9.5s-.63 1.5-1.406 1.5M16.679 28.774a1.936 1.936 0 0 0-1.927 1.942v71.568c0 1.071.865 1.942 1.927 1.942H67.32a1.936 1.936 0 0 0 1.927-1.942V30.716c0-1.071-.865-1.942-1.927-1.942H16.68zM67.32 107H16.68c-2.582 0-4.679-2.116-4.679-4.716V30.716c0-2.6 2.097-4.716 4.679-4.716H67.32C69.903 26 72 28.115 72 30.716v71.568c0 2.6-2.097 4.716-4.679 4.716z"/><path d="M63.62 47H50.38c-.762 0-1.38-.671-1.38-1.5s.618-1.5 1.38-1.5h13.24c.762 0 1.38.671 1.38 1.5s-.618 1.5-1.38 1.5M63.62 55H50.38c-.762 0-1.38-.671-1.38-1.5s.618-1.5 1.38-1.5h13.24c.762 0 1.38.671 1.38 1.5s-.618 1.5-1.38 1.5M63.62 63H50.38c-.762 0-1.38-.671-1.38-1.5s.618-1.5 1.38-1.5h13.24c.762 0 1.38.671 1.38 1.5s-.618 1.5-1.38 1.5M64.598 79H44.402C43.628 79 43 78.329 43 77.5s.628-1.5 1.402-1.5h20.196c.774 0 1.402.671 1.402 1.5s-.628 1.5-1.402 1.5M64.598 87H44.402C43.628 87 43 86.329 43 85.5s.628-1.5 1.402-1.5h20.196c.774 0 1.402.671 1.402 1.5s-.628 1.5-1.402 1.5M64.598 95H44.402C43.628 95 43 94.329 43 93.5s.628-1.5 1.402-1.5h20.196c.774 0 1.402.671 1.402 1.5s-.628 1.5-1.402 1.5M36.583 79H22.417C21.635 79 21 78.329 21 77.5s.635-1.5 1.417-1.5h14.166c.782 0 1.417.671 1.417 1.5s-.635 1.5-1.417 1.5M36.583 87H22.417C21.635 87 21 86.329 21 85.5s.635-1.5 1.417-1.5h14.166c.782 0 1.417.671 1.417 1.5s-.635 1.5-1.417 1.5M36.583 95H22.417C21.635 95 21 94.329 21 93.5s.635-1.5 1.417-1.5h14.166c.782 0 1.417.671 1.417 1.5s-.635 1.5-1.417 1.5M31.997 43.78c-5.081 0-9.217 4.137-9.217 9.22 0 5.084 4.136 9.22 9.217 9.22 5.087 0 9.223-4.136 9.223-9.22 0-5.083-4.136-9.22-9.223-9.22zm0 21.22C25.382 65 20 59.617 20 53s5.382-12 11.997-12C38.613 41 44 46.383 44 53s-5.387 12-12.003 12z"/><path d="M32.5 59c-.828 0-1.5-.603-1.5-1.346V46.346c0-.743.672-1.346 1.5-1.346s1.5.603 1.5 1.346v11.308c0 .743-.672 1.346-1.5 1.346"/><path d="M26.344 54c-.737 0-1.339-.643-1.344-1.44-.005-.803.591-1.458 1.333-1.464L38.646 51h.01c.737 0 1.339.643 1.344 1.44.005.803-.591 1.458-1.333 1.464L26.354 54h-.01M63.288 20H21.712C19.112 20 17 17.966 17 15.467V9.333C17 8.597 17.62 8 18.386 8c.765 0 1.386.597 1.386 1.333v6.134c0 1.029.87 1.866 1.94 1.866h41.576c1.07 0 1.94-.837 1.94-1.866V9.333c0-.736.621-1.333 1.386-1.333C67.38 8 68 8.597 68 9.333v6.134C68 17.966 65.888 20 63.288 20"/><path d="M53.593 11c-.59 0-1.142-.385-1.338-.99-1.383-4.342-5.465-7.146-10.406-7.146-4.475 0-8.46 2.73-10.142 6.958a1.399 1.399 0 0 1-1.833.789c-.72-.297-1.062-1.132-.77-1.865C31.218 3.433 36.221 0 41.85 0c6.184 0 11.316 3.582 13.082 9.126a1.438 1.438 0 0 1-.906 1.804 1.35 1.35 0 0 1-.432.07"/></g></svg>