<svg width="144" height="85" xmlns="http://www.w3.org/2000/svg"><g fill="#2B2B2B" fill-rule="nonzero"><path d="M71.485 45.796c.304 0 .62.02.937.062 4.97.643 6.551 6.101 7.597 9.714.184.636.358 1.238.537 1.772 1.677 5.037 3.693 10.319 7.06 14.836 4.907 6.585 12.787 10.009 21.925 9.489 10.633-.6 18.058-6.15 22.07-16.495 3.059-7.89 2.901-15.672 2.9-15.75-.005-.178.02-.356.075-.526.502-1.576 2.069-4.24 4.747-4.24.128 0 .258.005.389.018.523-.742 1.14-3.34.774-5.798-.187-1.256-.627-2.206-1.118-2.42a58.551 58.551 0 0 0-10.959-3.714c-5.123-1.198-10.654-1.805-16.438-1.805-4.651 0-9.57.393-14.618 1.167-3.01.46-6.108 1.245-9.103 2.003-4.956 1.256-10.079 2.553-15.284 2.554a30 30 0 0 1-2.044-.07l-.17-.01c-2.778-.188-5.402-.364-8.201-1.431-9.88-3.763-21.208-5.835-31.901-5.835-9.657 0-18.454 1.59-26.147 4.727-.547.21-.964 1.107-1.119 2.353-.305 2.464.47 4.993 1.034 5.545.588.032 1.31.356 4.527 3.716.312.326.472.766.443 1.214-.005.078-.477 7.93 2.278 15.938 3.592 10.446 10.772 16.266 21.342 17.297 1.02.1 2.042.15 3.036.15 7.852 0 14.692-3.102 19.26-8.735 3.585-4.42 5.844-9.7 7.752-14.744.236-.621.465-1.366.707-2.153 1.144-3.727 2.712-8.83 7.712-8.83zm36.262 39.143c-9.315 0-17.602-3.952-22.738-10.843-3.648-4.896-5.855-10.703-7.532-15.74-.191-.57-.378-1.213-.575-1.895-.908-3.136-2.039-7.04-4.9-7.41a4.046 4.046 0 0 0-.517-.036c-2.412 0-3.432 2.714-4.61 6.549-.257.838-.5 1.63-.773 2.347-2.003 5.295-4.39 10.855-8.261 15.63-5.196 6.407-12.933 9.936-21.787 9.936-1.1 0-2.228-.056-3.353-.166C6.599 80.764 6.033 52.345 6.136 47.393c-.92-.939-1.926-1.91-2.388-2.28-1.645-.299-2.874-2.077-3.42-4.98-.693-3.683-.04-7.917 2.983-9.079 8.056-3.285 17.267-4.957 27.349-4.957 11.08 0 22.822 2.148 33.063 6.05 2.344.892 4.622 1.046 7.258 1.223l.173.012c.594.04 1.207.061 1.822.061 4.798 0 9.72-1.247 14.482-2.453 3.07-.778 6.245-1.583 9.41-2.066 5.212-.8 10.297-1.205 15.113-1.205 6.034 0 11.815.636 17.181 1.89 4.027.94 7.91 2.256 11.54 3.91 3.312 1.434 3.513 6.774 2.832 10.01-.806 3.834-2.586 4.406-3.575 4.406h-.001c-.154 0-.31-.014-.468-.043a.852.852 0 0 0-.157-.015c-.681 0-1.328 1.165-1.58 1.786-.019 3.458-.978 33.694-28.028 35.22-.661.038-1.327.056-1.978.056z"/><path d="M126.922 60.934c-.146 0-.295-.02-.443-.061a1.609 1.609 0 0 1-1.118-1.988c.57-1.999 1.01-4.253 1.304-6.7.285-2.338.15-6.842-1.42-8.982-1.922-2.623-6.293-3.302-9.553-3.563-.118.02-.238.027-.356.018-.493-.035-.997-.007-1.53.02-.468.027-.95.052-1.435.033-.373-.019-.795.034-1.237.09-.445.056-.948.12-1.475.12h-1.656c-.336 0-.65-.102-.91-.278a64.053 64.053 0 0 0-9.619 1.156c-.436.087-.93.17-1.46.26-1.208.205-2.579.436-3.858.813-3.013.84-3.35 1.472-3.599 1.934-.042.08-.083.156-.125.23-1.216 2.125-1.341 4.978-.396 8.977.388 1.642.896 3.271 1.386 4.848l-1.535.52-1.55.474c-.52-1.673-1.044-3.356-1.458-5.107-.72-3.043-1.426-7.525.732-11.301l.083-.152c.652-1.217 1.567-2.403 5.562-3.516 1.444-.426 2.98-.685 4.213-.894.498-.084.96-.162 1.37-.243a67.78 67.78 0 0 1 12.81-1.284c.337.014.648.097.909.27l.167-.021c.538-.069 1.144-.147 1.795-.112.312.011.698-.009 1.109-.031a17.46 17.46 0 0 1 1.59-.036c.13-.025.261-.034.39-.024 4.265.315 9.51 1.156 12.257 4.903 2.296 3.127 2.35 8.55 2.019 11.262-.315 2.612-.786 5.033-1.403 7.194a1.621 1.621 0 0 1-1.56 1.171"/><path d="M107.605 76.536c-1.1 0-2.208-.082-3.315-.249-3.672-.551-6.949-1.906-9.74-4.025-1.847-1.401-3.45-3.14-4.765-5.17-.222-.339-.487-.753-.742-1.207a23.939 23.939 0 0 1-1.885-4.346l-.29-.935c-.11-.363-.227-.723-.347-1.094l-.18-.562a1.606 1.606 0 0 1 1.056-2.02c.85-.268 1.765.2 2.035 1.048l.178.55c.125.39.247.765.363 1.15l.283.912c.41 1.277.959 2.543 1.624 3.736.204.365.432.722.629 1.022 1.114 1.719 2.463 3.183 4.01 4.357 2.354 1.787 5.13 2.93 8.257 3.4 5.28.795 10.591-.664 14.569-4.005a1.629 1.629 0 0 1 2.285.19 1.6 1.6 0 0 1-.19 2.268c-3.856 3.238-8.765 4.98-13.835 4.98M36.113 75.964c-5.17 0-10.155-1.81-14.047-5.17-4.416-3.82-7.183-10.144-8.224-18.8-.33-2.71-.276-8.134 2.02-11.262 2.745-3.745 7.991-4.587 12.255-4.9.14-.01.279-.003.414.021.553-.02 1.084 0 1.56.016.41.016.8.03 1.134.016.62-.03 1.227.033 1.763.091L33.2 36a1.67 1.67 0 0 1 .877-.25c4.291.025 8.601.463 12.813 1.302.4.08.852.156 1.34.24 1.242.213 2.788.477 4.263.911 3.972 1.108 4.888 2.295 5.54 3.516l.083.152c2.158 3.774 1.451 8.259.732 11.303-.415 1.756-.941 3.447-1.45 5.081a1.637 1.637 0 0 1-2.032 1.077 1.597 1.597 0 0 1-1.075-2c.501-1.61 1.01-3.246 1.4-4.894.945-4 .82-6.853-.396-8.979-.043-.075-.085-.152-.127-.232-.248-.463-.586-1.097-3.574-1.93-1.315-.387-2.697-.623-3.915-.832-.518-.088-1-.171-1.426-.256a64.483 64.483 0 0 0-9.672-1.174 1.63 1.63 0 0 1-.857.242h-1.656c-.506 0-.975-.05-1.429-.099-.456-.048-.886-.094-1.265-.076-.482.02-.95.003-1.403-.014-.524-.02-1.066-.04-1.58-.002a1.628 1.628 0 0 1-.377-.017c-3.257.263-7.613.944-9.53 3.56-1.572 2.14-1.707 6.646-1.423 8.981.944 7.842 3.344 13.478 7.134 16.756 4.002 3.455 9.382 4.974 14.756 4.166 2.972-.447 5.635-1.506 7.914-3.147a1.63 1.63 0 0 1 2.265.357c.525.72.364 1.727-.36 2.249-2.704 1.946-5.844 3.2-9.333 3.724-1.11.167-2.221.25-3.324.25"/><path d="M54.086 64.514c-.223 0-.45-.046-.666-.143a1.605 1.605 0 0 1-.81-2.13c.33-.73.623-1.487.868-2.251l.276-.887c.113-.374.232-.741.354-1.12l.186-.579a1.624 1.624 0 0 1 2.035-1.05 1.607 1.607 0 0 1 1.058 2.02l-.19.592c-.117.36-.23.71-.338 1.067l-.284.912c-.29.903-.627 1.778-1.01 2.62-.27.596-.861.95-1.479.95M3.622 34.831c-.461 0-.92-.195-1.241-.573a1.602 1.602 0 0 1 .197-2.268c3.034-2.536 6.499-4.594 9.848-6.583.74-.44 1.478-.879 2.207-1.32 6.316-3.822 12.719-7.522 18.695-10.953.997-.571 2.6-1.51 4.497-2.624C53.171 1.512 55.081.606 56.021.578c1.646-.048 2.321.676 2.585 1.293.633 1.477-.732 2.805-1.548 3.6-2.538 2.471-5.16 4.816-7.617 6.98-5.93 5.23-12.281 10.611-19.418 16.45a1.63 1.63 0 0 1-2.284-.218c-.57-.686-.47-1.7.221-2.266 7.105-5.814 13.428-11.17 19.328-16.372a299.414 299.414 0 0 0 4.07-3.644c-3.813 2.15-8.842 5.098-11.884 6.882a659.671 659.671 0 0 1-4.523 2.64c-5.96 3.419-12.342 7.108-18.63 10.914-.736.445-1.481.888-2.23 1.332-3.24 1.925-6.59 3.916-9.425 6.284a1.621 1.621 0 0 1-1.044.378M139.739 34.831c-.368 0-.739-.124-1.044-.378-2.833-2.368-6.183-4.358-9.424-6.283-.748-.445-1.494-.888-2.23-1.333-6.302-3.813-12.678-7.499-18.631-10.914-1.003-.576-2.614-1.521-4.522-2.64-3.043-1.784-8.072-4.733-11.885-6.882a290.99 290.99 0 0 0 4.07 3.644c5.91 5.21 12.232 10.566 19.329 16.372.69.565.79 1.58.22 2.266a1.63 1.63 0 0 1-2.283.218c-7.128-5.83-13.48-11.211-19.42-16.45-2.454-2.163-5.077-4.507-7.617-6.98-.815-.795-2.18-2.124-1.546-3.6.265-.617.93-1.341 2.585-1.293.94.028 2.848.934 18.197 9.933a655.57 655.57 0 0 0 4.495 2.623c5.97 3.426 12.366 7.124 18.696 10.954.729.44 1.466.879 2.208 1.32 3.35 1.989 6.814 4.047 9.847 6.582.685.572.773 1.588.197 2.268-.322.378-.78.573-1.242.573"/></g></svg>